M48
; DRILL file {KiCad 8.0.8-8.0.8-0~ubuntu24.04.1} date 2025-02-21T17:42:53-0500
; FORMAT={-:-/ absolute / metric / decimal}
; #@! TF.CreationDate,2025-02-21T17:42:53-05:00
; #@! TF.GenerationSoftware,Kicad,Pcbnew,8.0.8-8.0.8-0~ubuntu24.04.1
; #@! TF.FileFunction,MixedPlating,1,4
FMAT,2
METRIC
; #@! TA.AperFunction,Plated,PTH,ViaDrill
T1C0.300
; #@! TA.AperFunction,Plated,PTH,ComponentDrill
T2C0.300
; #@! TA.AperFunction,Plated,PTH,ViaDrill
T3C0.400
; #@! TA.AperFunction,Plated,PTH,ComponentDrill
T4C0.400
; #@! TA.AperFunction,Plated,PTH,ComponentDrill
T5C0.600
; #@! TA.AperFunction,Plated,PTH,ComponentDrill
T6C1.000
; #@! TA.AperFunction,Plated,PTH,ComponentDrill
T7C3.200
; #@! TA.AperFunction,NonPlated,NPTH,ComponentDrill
T8C0.650
%
G90
G05
T1
X51.025Y-70.8
X51.9Y-70.8
X53.0Y-26.75
X55.45Y-47.5
X55.7Y-51.6
X55.8Y-44.05
X56.1Y-24.2
X57.35Y-32.5
X58.55Y-76.35
X59.25Y-44.05
X59.6Y-74.6
X60.8Y-75.0
X61.0Y-53.0
X61.15Y-84.15
X61.55Y-46.2
X62.0Y-45.2
X63.0Y-44.2
X63.974Y-43.699
X64.2Y-83.9
X64.75Y-78.4
X64.9Y-55.61
X64.9Y-58.15
X64.9Y-60.69
X64.9Y-63.23
X64.9Y-68.31
X65.534Y-42.908
X65.6Y-69.61
X65.75Y-64.65
X66.712Y-69.957
X66.879Y-44.505
X67.25Y-73.4
X67.4Y-54.0
X67.4Y-67.5
X67.6Y-63.2
X67.9Y-30.8
X67.95Y-70.95
X68.2Y-55.8
X69.05Y-49.9
X69.433Y-71.486
X69.45Y-45.85
X69.85Y-79.05
X70.2Y-33.7
X70.3Y-40.3
X70.378Y-71.525
X70.5Y-30.1
X70.65Y-73.15
X70.8Y-62.4
X70.845Y-65.9
X70.9Y-32.3
X70.9Y-67.015
X71.4Y-30.5
X71.4Y-60.6
X71.458Y-67.715
X71.6Y-64.2
X71.925Y-27.55
X72.0Y-58.2
X72.1Y-37.1
X72.8Y-70.3
X73.054Y-68.415
X73.1Y-37.6
X73.6Y-69.8
X74.0Y-36.0
X74.6Y-34.2
X75.7Y-30.5
X75.8Y-77.4
X75.9Y-38.0
X76.0Y-52.4
X76.0Y-63.2
X76.175Y-74.955
X76.7Y-53.2
X76.729Y-44.53
X76.782Y-48.225
X76.8Y-87.175
X76.82Y-38.812
X77.05Y-76.96
X77.1Y-40.7
X77.2Y-46.775
X77.228Y-43.817
X77.4Y-42.964
X77.4Y-39.5
X77.575Y-74.818
X77.7Y-31.8
X78.075Y-51.2
X78.235Y-44.641
X78.372Y-41.715
X78.775Y-52.425
X78.9Y-42.46
X78.978Y-48.314
X79.082Y-47.463
X79.1Y-39.5
X79.4Y-46.14
X79.729Y-45.266
X80.9Y-53.2
X81.0Y-59.6
X81.0Y-63.2
X81.3Y-36.7
X81.6Y-75.0
X81.8Y-37.427
X82.3Y-52.3
X82.5Y-38.9
X82.6Y-57.0
X82.8Y-37.9
X82.952Y-36.2
X83.0Y-61.2
X83.2Y-74.2
X83.3Y-34.6
X83.3Y-58.3
X83.728Y-70.102
X83.783Y-68.0
X83.9Y-55.7
X84.212Y-39.039
X84.4Y-64.4
X84.4Y-65.4
X84.75Y-33.65
X84.8Y-71.2
X85.0Y-42.0
X85.0Y-69.8
X85.045Y-38.867
X85.2Y-66.1
X85.6Y-36.3
X85.6Y-49.53
X85.6Y-50.4
X85.6Y-72.6
X85.6Y-73.8
X85.801Y-47.092
X85.902Y-54.122
X86.1Y-58.3
X86.1Y-66.9
X87.1Y-47.0
X87.6Y-53.8
X88.0Y-39.1
X88.0Y-50.4
X88.2Y-36.1
X88.5Y-34.4
X88.8Y-55.8
X89.4Y-33.65
X89.5Y-36.9
X90.2Y-49.6
X90.2Y-72.4
X90.251Y-40.411
X90.301Y-42.557
X90.443Y-43.837
X90.6Y-36.1
X90.65Y-34.1
X90.901Y-40.989
X91.15Y-77.15
X91.227Y-43.197
X91.35Y-46.3
X91.4Y-35.5
X91.7Y-59.65
X91.8Y-69.0
X92.2Y-53.05
X92.3Y-80.1
X92.55Y-33.1
X92.587Y-69.866
X92.6Y-87.19
X93.396Y-70.515
X93.4Y-43.9
X93.4Y-80.1
X93.685Y-73.353
X94.0Y-34.4
X94.0Y-46.2
X95.05Y-60.2
X95.15Y-57.0
X95.4Y-35.275
X95.6Y-62.8
X95.9Y-48.5
X96.5Y-59.65
X96.5Y-71.2
X96.5Y-79.1
X97.042Y-85.01
X97.05Y-53.1
X97.3Y-67.21
X98.65Y-55.1
X98.8Y-74.79
X99.6Y-48.5
X99.71Y-64.4
X101.3Y-65.4
T2
X77.1Y-66.2
X77.1Y-69.0
X77.5Y-49.7
X78.55Y-67.65
X79.9Y-66.2
X79.9Y-69.0
X83.6Y-42.9
X83.6Y-46.1
X85.2Y-44.5
X86.8Y-42.9
X86.8Y-46.1
T3
X51.1Y-41.2
X51.1Y-47.5
X51.4Y-33.3
X51.7Y-76.0
X51.9Y-40.4
X52.2Y-32.5
X52.2Y-55.85
X52.2Y-73.65
X52.4Y-47.5
X53.1Y-76.4
X54.0Y-47.5
X55.2Y-38.6
X56.8Y-53.9
X57.5Y-41.4
X58.8Y-54.0
X59.0Y-57.3
X60.2Y-66.75
X60.7Y-37.5
X62.0Y-32.5
X63.4Y-32.5
X64.8Y-32.5
X65.7Y-76.35
X66.2Y-32.5
X67.2Y-24.8
X68.6Y-24.9
X72.9Y-29.1
X73.3Y-47.5
X73.9Y-24.0
X74.0Y-60.4
X74.5Y-27.8
X74.5Y-29.1
X75.2Y-24.0
X75.2Y-59.4
X76.2Y-60.6
X76.67Y-59.661
X79.2Y-23.4
X79.2Y-24.9
X79.2Y-31.8
X79.2Y-32.8
X79.945Y-40.3
X80.7Y-23.4
X80.8Y-31.8
X80.8Y-32.8
X81.6Y-27.9
X81.7Y-24.2
X81.9Y-31.0
X82.7Y-30.5
X83.85Y-30.75
X84.886Y-68.075
X85.942Y-35.387
X87.146Y-76.566
X88.8Y-64.8
X88.804Y-76.71
X90.086Y-75.775
X90.135Y-73.225
X90.4Y-58.5
X90.475Y-59.6
X90.5Y-30.9
X90.7Y-48.5
X91.8Y-30.9
X92.1Y-48.5
X93.4Y-27.6
X94.8Y-25.8
X94.8Y-27.6
X95.7Y-64.85
X95.7Y-67.4
X95.7Y-73.9
X95.7Y-78.3
X99.6Y-35.5
X100.7Y-35.5
X101.5Y-48.4
X102.7Y-48.0
T4
X51.2Y-26.7
X51.2Y-31.8
X51.2Y-77.2
X51.9Y-34.4
X52.0Y-41.9
X52.0Y-46.3
X52.0Y-48.8
X52.0Y-52.3
X54.15Y-55.71
X54.15Y-58.25
X54.15Y-60.79
X54.15Y-63.33
X54.15Y-65.87
X54.15Y-68.41
X54.15Y-73.49
X55.0Y-23.5
X57.2Y-27.6
X58.0Y-87.0
X58.85Y-52.6
X58.85Y-59.35
X58.85Y-67.5
X58.85Y-73.75
X61.85Y-44.2
X61.9Y-37.15
X62.2Y-27.6
X63.1Y-62.0
X63.6Y-87.0
X63.9Y-33.6
X64.4Y-42.15
X64.6Y-77.3
X64.65Y-48.45
X64.65Y-52.15
X65.5Y-31.4
X66.8Y-75.4
X67.55Y-52.15
X68.8Y-54.9
X71.15Y-37.85
X71.15Y-59.4
X71.8Y-75.4
X72.35Y-34.3
X72.9Y-81.0
X74.6Y-25.1
X75.0Y-50.6
X75.4Y-78.3
X75.5Y-46.0
X76.4Y-54.75
X76.4Y-58.25
X77.1Y-33.6
X80.2Y-50.4
X84.0Y-62.8
X84.2Y-23.6
X84.4Y-34.8
X85.6Y-26.5
X87.1Y-23.6
X87.9Y-57.8
X87.9Y-62.8
X88.8Y-26.5
X88.8Y-75.3
X90.2Y-23.6
X91.3Y-73.8
X91.4Y-49.8
X93.05Y-68.9
X93.8Y-40.8
X94.1Y-55.9
X94.8Y-23.6
X95.15Y-42.55
X96.45Y-55.9
X98.4Y-49.5
X98.65Y-67.75
X98.65Y-73.55
X100.1Y-34.4
X102.6Y-49.6
X102.6Y-52.6
X102.6Y-58.6
X102.6Y-61.6
X102.6Y-64.6
X102.6Y-67.6
X102.6Y-70.6
X102.6Y-73.6
X102.6Y-76.6
X102.6Y-79.6
X102.6Y-85.2
T6
X60.0Y-25.0
X62.54Y-25.0
X65.675Y-83.575
X65.675Y-86.115
X68.215Y-83.575
X68.215Y-86.115
X70.755Y-83.575
X70.755Y-86.115
X73.295Y-83.575
X73.295Y-86.115
X75.835Y-83.575
X75.835Y-86.115
X78.375Y-83.575
X78.375Y-86.115
X80.915Y-86.115
X83.455Y-86.115
X85.995Y-86.115
X88.535Y-83.575
X88.535Y-86.115
X91.075Y-83.575
X91.075Y-86.115
X93.615Y-83.575
X93.615Y-86.115
X96.155Y-83.575
X96.155Y-86.115
X98.335Y-46.6
X98.36Y-37.745
X98.36Y-40.285
X98.36Y-42.825
X98.695Y-83.575
X98.695Y-86.115
X100.875Y-46.6
X100.9Y-37.745
X100.9Y-40.285
X100.9Y-42.825
X101.235Y-83.575
X101.235Y-86.115
T7
X54.2Y-84.0
X83.7Y-80.0
X99.7Y-26.5
T8
X84.31Y-28.1
X90.09Y-28.1
T5
G00X82.88Y-24.75
M15
G01X82.88Y-24.15
M16
G05
G00X82.88Y-29.18
M15
G01X82.88Y-28.08
M16
G05
G00X91.52Y-24.75
M15
G01X91.52Y-24.15
M16
G05
G00X91.52Y-29.18
M15
G01X91.52Y-28.08
M16
G05
M30
