%TF.GenerationSoftware,KiCad,Pcbnew,8.0.8-8.0.8-0~ubuntu24.04.1*%
%TF.CreationDate,2025-02-21T17:42:53-05:00*%
%TF.ProjectId,ChipigniteExplain,43686970-6967-46e6-9974-654578706c61,1.1*%
%TF.SameCoordinates,Original*%
%TF.FileFunction,Plated,1,4,PTH,Mixed*%
%TF.FilePolarity,Positive*%
%FSLAX46Y46*%
G04 Gerber Fmt 4.6, Leading zero omitted, Abs format (unit mm)*
G04 Created by KiCad (PCBNEW 8.0.8-8.0.8-0~ubuntu24.04.1) date 2025-02-21 17:42:53*
%MOMM*%
%LPD*%
G01*
G04 APERTURE LIST*
%TA.AperFunction,ViaDrill*%
%ADD10C,0.300000*%
%TD*%
%TA.AperFunction,ComponentDrill*%
%ADD11C,0.300000*%
%TD*%
%TA.AperFunction,ViaDrill*%
%ADD12C,0.400000*%
%TD*%
%TA.AperFunction,ComponentDrill*%
%ADD13C,0.400000*%
%TD*%
G04 aperture for slot hole*
%TA.AperFunction,ComponentDrill*%
%ADD14C,0.600000*%
%TD*%
%TA.AperFunction,ComponentDrill*%
%ADD15C,1.000000*%
%TD*%
%TA.AperFunction,ComponentDrill*%
%ADD16C,3.200000*%
%TD*%
G04 APERTURE END LIST*
D10*
X51025000Y-70800000D03*
X51900000Y-70800000D03*
X53000000Y-26750000D03*
X55450000Y-47500000D03*
X55700000Y-51600000D03*
X55800000Y-44050000D03*
X56100000Y-24200000D03*
X57350000Y-32500000D03*
X58550000Y-76350000D03*
X59250000Y-44050000D03*
X59600000Y-74600000D03*
X60800000Y-75000000D03*
X61000000Y-53000000D03*
X61150000Y-84150000D03*
X61550000Y-46200000D03*
X62000000Y-45200000D03*
X63000000Y-44200000D03*
X63973994Y-43699300D03*
X64200000Y-83900000D03*
X64750000Y-78400000D03*
X64900000Y-55610000D03*
X64900000Y-58150000D03*
X64900000Y-60690000D03*
X64900000Y-63230000D03*
X64900000Y-68310000D03*
X65533607Y-42908302D03*
X65600000Y-69610002D03*
X65750000Y-64650000D03*
X66711557Y-69956948D03*
X66879395Y-44504517D03*
X67250000Y-73400000D03*
X67400000Y-54000000D03*
X67400000Y-67500000D03*
X67600000Y-63200000D03*
X67900000Y-30800000D03*
X67950000Y-70950000D03*
X68200000Y-55800000D03*
X69050000Y-49900000D03*
X69433290Y-71486441D03*
X69450000Y-45850000D03*
X69850000Y-79050000D03*
X70200000Y-33700000D03*
X70300000Y-40300000D03*
X70377786Y-71525000D03*
X70500000Y-30100000D03*
X70650000Y-73150000D03*
X70800000Y-62400000D03*
X70844999Y-65900432D03*
X70900000Y-32300000D03*
X70900000Y-67014646D03*
X71400000Y-30500000D03*
X71400000Y-60600000D03*
X71457552Y-67714646D03*
X71600000Y-64200000D03*
X71925000Y-27550000D03*
X72000000Y-58200000D03*
X72100000Y-37100000D03*
X72800000Y-70300000D03*
X73053502Y-68414646D03*
X73100000Y-37600000D03*
X73600000Y-69800000D03*
X74000000Y-36000000D03*
X74600000Y-34200000D03*
X75700000Y-30500000D03*
X75800002Y-77400000D03*
X75900000Y-37999992D03*
X76000000Y-52400000D03*
X76000000Y-63200000D03*
X76175000Y-74955352D03*
X76700000Y-53200000D03*
X76729400Y-44529734D03*
X76781717Y-48225000D03*
X76800000Y-87175000D03*
X76819970Y-38811836D03*
X77050005Y-76960045D03*
X77100000Y-40700000D03*
X77199847Y-46774847D03*
X77227683Y-43816559D03*
X77399897Y-42963771D03*
X77400000Y-39500000D03*
X77575000Y-74818138D03*
X77700000Y-31800000D03*
X78075000Y-51200000D03*
X78234734Y-44640657D03*
X78372332Y-41715000D03*
X78775000Y-52425000D03*
X78900000Y-42460000D03*
X78978374Y-48314348D03*
X79081503Y-47462589D03*
X79100000Y-39500000D03*
X79400000Y-46140000D03*
X79728826Y-45266076D03*
X80900000Y-53200000D03*
X81000000Y-59600000D03*
X81000000Y-63200000D03*
X81300000Y-36700000D03*
X81600000Y-75000000D03*
X81800000Y-37426870D03*
X82300000Y-52300000D03*
X82500000Y-38900000D03*
X82600000Y-57000000D03*
X82800000Y-37900000D03*
X82952395Y-36200000D03*
X83000000Y-61200000D03*
X83200000Y-74200000D03*
X83300000Y-34600000D03*
X83300000Y-58300000D03*
X83728114Y-70101767D03*
X83783443Y-68000000D03*
X83900000Y-55700000D03*
X84212395Y-39038552D03*
X84400000Y-64400000D03*
X84400000Y-65400000D03*
X84750000Y-33650000D03*
X84800000Y-71200000D03*
X85000000Y-42000000D03*
X85000000Y-69800000D03*
X85045000Y-38867455D03*
X85200000Y-66100000D03*
X85600000Y-36300000D03*
X85600000Y-49529997D03*
X85600000Y-50400000D03*
X85600000Y-72600000D03*
X85600000Y-73800000D03*
X85800971Y-47092444D03*
X85902240Y-54122396D03*
X86100000Y-58300000D03*
X86100000Y-66900000D03*
X87100000Y-47000000D03*
X87600000Y-53800000D03*
X88000000Y-39100000D03*
X88000000Y-50400000D03*
X88200000Y-36100000D03*
X88500000Y-34400000D03*
X88800000Y-55800000D03*
X89400000Y-33650000D03*
X89500000Y-36900000D03*
X90200000Y-49600000D03*
X90200000Y-72400000D03*
X90250583Y-40410838D03*
X90301117Y-42557304D03*
X90442627Y-43837304D03*
X90600000Y-36100000D03*
X90650000Y-34100000D03*
X90900695Y-40988988D03*
X91150000Y-77150000D03*
X91227082Y-43197304D03*
X91350000Y-46300000D03*
X91400000Y-35500000D03*
X91700000Y-59650000D03*
X91800000Y-69000000D03*
X92200000Y-53050000D03*
X92300000Y-80100000D03*
X92550000Y-33100000D03*
X92587313Y-69866017D03*
X92600000Y-87190000D03*
X93396394Y-70515000D03*
X93400000Y-43900000D03*
X93400000Y-80100000D03*
X93685000Y-73352869D03*
X94000000Y-34400000D03*
X94000000Y-46200000D03*
X95050000Y-60200000D03*
X95150000Y-57000000D03*
X95400000Y-35275000D03*
X95600000Y-62800000D03*
X95900000Y-48500000D03*
X96500000Y-59650000D03*
X96500000Y-71200000D03*
X96500000Y-79100000D03*
X97041552Y-85010290D03*
X97050000Y-53100000D03*
X97300000Y-67210002D03*
X98650000Y-55100000D03*
X98800000Y-74789998D03*
X99600000Y-48500000D03*
X99710002Y-64400000D03*
X101300000Y-65400000D03*
D11*
%TO.C,HSTITCH1*%
X77100000Y-66200000D03*
X77100000Y-69000000D03*
X77500000Y-49700000D03*
X78550000Y-67650000D03*
X79900000Y-66200000D03*
X79900000Y-69000000D03*
X83600000Y-42900000D03*
X83600000Y-46100000D03*
X85200000Y-44500000D03*
X86800000Y-42900000D03*
X86800000Y-46100000D03*
%TD*%
D12*
X51100000Y-41200000D03*
X51100000Y-47500000D03*
X51400000Y-33300000D03*
X51700000Y-76000000D03*
X51900000Y-40400000D03*
X52200000Y-32500000D03*
X52200000Y-55850000D03*
X52200000Y-73650000D03*
X52400000Y-47500000D03*
X53100000Y-76400000D03*
X54000004Y-47500000D03*
X55200000Y-38600000D03*
X56800000Y-53900000D03*
X57500000Y-41400000D03*
X58800000Y-54000000D03*
X59000000Y-57300000D03*
X60200000Y-66749994D03*
X60700000Y-37500000D03*
X62000000Y-32500000D03*
X63400000Y-32500000D03*
X64800000Y-32500000D03*
X65700000Y-76350000D03*
X66200000Y-32500000D03*
X67200000Y-24800000D03*
X68600000Y-24900000D03*
X72900000Y-29100000D03*
X73300000Y-47500000D03*
X73900000Y-24000000D03*
X74000000Y-60400000D03*
X74500000Y-27800000D03*
X74500000Y-29100000D03*
X75200000Y-24000000D03*
X75200000Y-59400000D03*
X76200000Y-60600000D03*
X76669575Y-59660849D03*
X79200000Y-23400000D03*
X79200000Y-24900000D03*
X79200000Y-31800000D03*
X79200000Y-32800000D03*
X79945000Y-40300000D03*
X80700000Y-23400000D03*
X80800000Y-31800000D03*
X80800000Y-32800000D03*
X81600000Y-27900000D03*
X81700000Y-24200000D03*
X81900000Y-31000000D03*
X82700000Y-30500000D03*
X83849945Y-30749945D03*
X84886281Y-68075000D03*
X85942346Y-35387077D03*
X87145975Y-76566273D03*
X88800000Y-64800000D03*
X88804266Y-76710000D03*
X90085674Y-75775000D03*
X90134591Y-73225000D03*
X90400000Y-58500000D03*
X90475000Y-59600000D03*
X90500000Y-30900000D03*
X90700000Y-48500000D03*
X91800000Y-30900000D03*
X92100000Y-48500000D03*
X93400000Y-27600000D03*
X94800000Y-25800000D03*
X94800000Y-27600000D03*
X95700000Y-64850000D03*
X95700000Y-67400000D03*
X95700000Y-73900000D03*
X95700000Y-78300000D03*
X99600000Y-35500000D03*
X100700000Y-35500000D03*
X101500000Y-48400000D03*
X102700000Y-48000000D03*
D13*
%TO.C,STCHG1*%
X51200000Y-26700000D03*
X51200000Y-31800000D03*
X51200000Y-77200000D03*
%TO.C,STCHG8*%
X51900000Y-34400000D03*
%TO.C,STCHG1*%
X52000000Y-41900000D03*
X52000000Y-46300000D03*
X52000000Y-48800000D03*
X52000000Y-52300000D03*
%TO.C,STCHG8*%
X54150000Y-55710000D03*
%TO.C,STCHG1*%
X54150000Y-58250000D03*
%TO.C,STCHG2*%
X54150000Y-60790000D03*
%TO.C,STCHG3*%
X54150000Y-63330000D03*
%TO.C,STCHG4*%
X54150000Y-65870000D03*
%TO.C,STCHG5*%
X54150000Y-68410000D03*
%TO.C,STCHG7*%
X54150000Y-73490000D03*
%TO.C,STCHG1*%
X55000000Y-23500000D03*
X57200000Y-27600000D03*
%TO.C,STCHG19*%
X58000000Y-87000000D03*
%TO.C,STCHG8*%
X58850000Y-52600000D03*
X58850000Y-59350000D03*
X58850000Y-67500000D03*
X58850000Y-73750000D03*
X61850000Y-44200000D03*
X61900000Y-37150000D03*
%TO.C,STCHG1*%
X62200000Y-27600000D03*
%TO.C,STCHG8*%
X63100000Y-62000000D03*
%TO.C,STCHG19*%
X63600000Y-87000000D03*
%TO.C,STCHG1*%
X63900000Y-33600000D03*
%TO.C,STCHG8*%
X64400000Y-42150000D03*
%TO.C,STCHG1*%
X64600000Y-77300000D03*
%TO.C,STCHG8*%
X64650000Y-48450000D03*
X64650000Y-52150000D03*
%TO.C,STCHG1*%
X65500000Y-31400000D03*
X66800000Y-75400000D03*
%TO.C,STCHG8*%
X67550000Y-52150000D03*
X68800000Y-54900000D03*
X71150000Y-37850000D03*
X71150000Y-59400000D03*
%TO.C,STCHG1*%
X71800000Y-75400000D03*
%TO.C,STCHG8*%
X72350000Y-34300000D03*
%TO.C,STCHG1*%
X72900000Y-81000000D03*
X74600000Y-25100000D03*
%TO.C,STCHG9*%
X75000000Y-50600000D03*
%TO.C,STCHG1*%
X75400000Y-78300000D03*
%TO.C,STCHG8*%
X75500000Y-46000000D03*
X76400000Y-54750000D03*
X76400000Y-58250000D03*
X77100000Y-33600000D03*
%TO.C,STCHG9*%
X80200000Y-50400000D03*
X84000000Y-62800000D03*
%TO.C,STCHG1*%
X84200000Y-23600000D03*
%TO.C,STCHG8*%
X84400000Y-34800000D03*
%TO.C,STCHG1*%
X85600000Y-26500000D03*
X87100000Y-23600000D03*
%TO.C,STCHG9*%
X87900000Y-57800000D03*
X87900000Y-62800000D03*
%TO.C,STCHG1*%
X88800000Y-26500000D03*
X88800000Y-75300000D03*
X90200000Y-23600000D03*
X91300000Y-73800000D03*
X91400000Y-49800000D03*
%TO.C,STCHG8*%
X93050000Y-68900000D03*
X93800000Y-40800000D03*
%TO.C,STCHG11*%
X94100000Y-55900000D03*
%TO.C,STCHG1*%
X94800000Y-23600000D03*
%TO.C,STCHG8*%
X95150000Y-42550000D03*
%TO.C,STCHG11*%
X96450000Y-55900000D03*
%TO.C,STCHG9*%
X98400000Y-49500000D03*
%TO.C,STCHG8*%
X98650000Y-67750000D03*
X98650000Y-73550000D03*
%TO.C,STCHG1*%
X100100000Y-34400000D03*
X102600000Y-49600000D03*
%TO.C,STCHG9*%
X102600000Y-52600000D03*
%TO.C,STCHG11*%
X102600000Y-58600000D03*
%TO.C,STCHG12*%
X102600000Y-61600000D03*
%TO.C,STCHG13*%
X102600000Y-64600000D03*
%TO.C,STCHG14*%
X102600000Y-67600000D03*
%TO.C,STCHG15*%
X102600000Y-70600000D03*
%TO.C,STCHG16*%
X102600000Y-73600000D03*
%TO.C,STCHG17*%
X102600000Y-76600000D03*
%TO.C,STCHG18*%
X102600000Y-79600000D03*
X102600000Y-85200000D03*
D14*
%TO.C,J4*%
X82880000Y-24150000D02*
X82880000Y-24750000D01*
X82880000Y-28080000D02*
X82880000Y-29180000D01*
X91520000Y-24150000D02*
X91520000Y-24750000D01*
X91520000Y-28080000D02*
X91520000Y-29180000D01*
D15*
%TO.C,J1*%
X60000000Y-25000000D03*
X62540000Y-25000000D03*
%TO.C,J6*%
X65675000Y-83575000D03*
X65675000Y-86115000D03*
X68215000Y-83575000D03*
X68215000Y-86115000D03*
X70755000Y-83575000D03*
X70755000Y-86115000D03*
X73295000Y-83575000D03*
X73295000Y-86115000D03*
X75835000Y-83575000D03*
X75835000Y-86115000D03*
X78375000Y-83575000D03*
X78375000Y-86115000D03*
%TO.C,J3*%
X80915000Y-86115000D03*
X83455000Y-86115000D03*
X85995000Y-86115000D03*
%TO.C,J5*%
X88535000Y-83575000D03*
X88535000Y-86115000D03*
X91075000Y-83575000D03*
X91075000Y-86115000D03*
X93615000Y-83575000D03*
X93615000Y-86115000D03*
X96155000Y-83575000D03*
X96155000Y-86115000D03*
%TO.C,J10*%
X98335000Y-46600000D03*
%TO.C,J7*%
X98360000Y-37745000D03*
X98360000Y-40285000D03*
X98360000Y-42825000D03*
%TO.C,J5*%
X98695000Y-83575000D03*
X98695000Y-86115000D03*
%TO.C,J10*%
X100875000Y-46600000D03*
%TO.C,J7*%
X100900000Y-37745000D03*
X100900000Y-40285000D03*
X100900000Y-42825000D03*
%TO.C,J5*%
X101235000Y-83575000D03*
X101235000Y-86115000D03*
D16*
%TO.C,H1*%
X54200000Y-84000000D03*
%TO.C,H2*%
X83700000Y-80000000D03*
%TO.C,H3*%
X99700000Y-26500000D03*
M02*
